<svg xmlns="http://www.w3.org/2000/svg" width="1106" height="374.07" viewBox="0 0 1106 374.07"><g><g fill="#E94A08"><path d="M135.802 168.708c-3.626 8.143-20.878 43.279-55.878 39.123-40.17-4.942-64.85-22.948-66.485-24.189-1.182-1.348-.788-2.112.094-4.046 0 0 6.872-14.661 7.898-17.203 1.12-2.949 3.149-2.472 4.798-.372 2.819 2.59 11.485 7.625 19.604 9.534 8.728 2.05 25.129 3.333 36.658-3.807 11.327-7.19 14.321-13.554 15.657-19.236 1.287-5.479 2.073-10.648-1.653-16.665-5.542-9.225-10.662-10.214-16.68-10.13-5.92-.319-18.464 6.584-20.469 7.826-1.755 1.086-4.489.873-5.825-.725l-10.652-12.998s16.851-17.028 37.417-17.977c12.224-.982 34.954 4.36 49.678 22.811s9.883 37.225 5.838 48.054zm4.106-81.269c-1.168 3.152-3.983 7.842-5.822 10.196-1.884 2.555-6.052 1.146-9.095.432 0 0-23.544-5.532-29.834-7.011-6.088-1.43 2.768-8.128-.647-13.644-3.214-5.465-18.758-6.761-28.389-4.956l10.826-46.069c.524-2.232 1.108-3.809 3.842-3.595 2.638.62 29.617 2.463 47.289 18.394 9.838 9.164 21.075 24.226 11.83 46.253zM185.758 141.522c.261 7.459.739 14.715 1.925 21.062 4.012 21.979 11.424 29.55 12.228 30.847.932 1.259 1.109 2.323.528 3.192l-2.254 4.16c-.542.998-2.504 1.442-6.85-2.853-4.93-5.795-13.396-21.148-14.512-47.477-.057-2.077-.115-4.153-.045-6.267-10.415 2.532-15.988 2.093-15.988 2.093l2.01-17.207c4.091-.794 9.17-2.024 14.392-3.713 1.033-15.8 3.004-27.97 3.264-29.443.621-2.139 1.302-2.201 2.328-2.506l5.771-1.713s1.316 1.144.549 5.142c-1.346 4.866-2.516 14.564-3.048 25.471 5.53-2.061 10.69-4.43 14.671-7.007 9.732-6.239 14.843-13.479 21.534-9.742 6.821 3.699 2.055 12.093-3.484 16.947-5.062 4.575-18.715 14.07-33.019 19.014zm69.827 39.152c6.846-.915 8.375-2.346 8.87-.679.496 1.669-1.28 4.149-1.326 6.815-.048 2.666-6.77 4.94-10.31 5.711-3.668.809-15.668 2.697-20.86-10.557-3.981-10.124 3.082-15.012 2.054-18.476-.609-2.053-4.015 1.051-5.574-.439-1.726-1.582-3.411-8.199-3.274-11.032.174-2.704 1.03-1.701 2.251-2.762 1.387-.97 8.222-6.627 17.285-2.897 7.937 3.228 4.298 12.125 2.763 14.952-1.571 2.7-4.964 10.548-4.051 13.625.951 3.207 5.362 6.784 12.172 5.739zM318.703 131.843v-11.456l33.852-1.54c1.881 0 1.881 1.197 1.881 3.592 0 2.393-1.367 27.867-20.004 53.513-14.361 20.004-28.209 19.49-40.52 19.49-12.31 0-15.216-16.242-3.933-19.49-6.496-6.668-10.429-32.143-3.077-52.487 7.522-21.03 28.381-46.676 56.933-46.676 28.553 0 61.379 23.424 63.088 64.114 1.539 40.862-30.945 57.446-57.787 63.259l-9.403-28.722c14.361-5.3 34.535 28.209 34.535-40.692 0-18.464-15.387-32.142-38.298-32.142-17.267 0-26.671 11.968-32.826 30.433-5.3 17.096 9.917 33.681 4.617 45.478 10.771-5.471 21.371-36.587 22.567-49.068l-11.625 2.394zM488.96 18.058l-6.553 59.942 15.418.162-1.573 14.395-15.535.912-9.651 88.301-32.071-8.941 1.808-16.542 10.76-2.955 6.388-58.438-29.067 1.389 2.16-19.766 28.809.974 6.764-61.875 22.343 2.442zm10.394 167.456c14.648-2.748 23.079 1.653 23.722 13.681.619 12.244-22.604 11.879-22.604 11.879l-1.118-25.56zm108.762-26.374l-13.107-1.433-1.864 11.1 18.835 2.711-.939 8.594-19.738-.419-6.776 42.089c-31.01-4.693-32.549-24.428-32.549-24.428l20.188-1.707 3.098-16.403-58.02-.254-2.782-20.307 63.025 8.194 2.271-10.839-66.602-7.28.966-60.553 45.976 5.025 1.878-17.188-42.248-3.314.538-32.77 43.612 18.682 5.308-48.556s31.866 14.789 31.279 20.159c-.611 5.587-11.103 10.092-11.103 10.092l-3.054 27.931 28.471 12.025-29.504-2.572-1.973 18.047 33.301 3.64c2.792.305 6.519 2.017 5.979 6.958-.542 4.944-14.466 52.776-14.466 52.776zm-50.745-40.987l1.033-9.452-12.675-1.386-1.033 9.452 12.675 1.386zm-1.926 17.618l1.08-9.882-12.675-1.386-1.08 9.882 12.675 1.386zm33.51-14.166l1.033-9.452-8.378-.916-1.033 9.452 8.378.916zm-1.926 17.618l1.08-9.882-8.378-.916-1.08 9.882 8.378.916zm15.963-82.394l29.737-13.489-4.32 39.531-25.417-26.042zM692.086 90.269c1.11 1.322 1.494 2.746.947 4.115l-27.2 66.808c-1.273 2.765-2.908 4.288-4.407 4.129-.956-.236-1.806-2.334-1.566-4.584l-.697-64.187c-.021-1.474-.225-2.923.191-3.905 3.535-6.408 6.415-9.583 15.572-10.129 8.98-.521 15.87 6.455 17.16 7.753zm46.73 49.965c2.771-1.312 3.696.036 2.062 2.852-1.096 2.739-6.404 16.231-17.626 24.456 2.087 13.562 3.562 24.069 3.664 24.793.381 2.718.763 5.435-1.23 5.715s-4.349.61-6.521-.378c-1.961-.833-.999-3.184-1.126-4.09l-3.284-22.075c-7.225 2.491-20.558 6.21-33.778-3.757-1.65-1.246.082-2.043 1.481-2.609l29.422-12.811-4.2-28.599c-7.688 1.819-15.324 3.999-16.592 4.177-3.261.458-4.08-2.752-3.405-4.509l2.634-8.867c.236-.957 1.224-1.834 2.128-1.961 0 0 6.264-1.433 13.02-3.306l-6.185-40.14c10.322-1.449 17.663 2.139 18.579 8.662.89 6.339-3.081 10.959-6.11 11.755l2.466 17.573c4.299-.974 7.688-1.82 8.051-1.871 1.631-.229 2.483.576 2.661 1.844 0 0 1.84 9.163 1.916 9.707.076.544.435 1.786-1.868 2.479 0 0-3.753.896-8.543 2.308 1.17 8.333 2.673 17.728 3.97 26.966l18.414-8.314zm66.443-45.16c20.909 8.148 26.31 21.614 28.219 44.437 2.019 20.96-12.999 57.427-30.377 54.693-12.261-1.789-10.762-10.866-10.762-10.866l-15.277-4.875c-1.139-.21-1.215-.753-.849-2.098.185-1.318 1.493-7.783 1.493-7.783s.186-1.32 1.736-.798c1.524.341 14.061 5.416 18.141 8.168 0 0 8.429-18.916 10.221-32.468 1.291-9.233-1.558-18.992-7.36-26.122-3.763 15.306-11.494 45.762-11.914 46.745-.363 1.345-1.503 1.136-2.663.743l-5.767-1.591c-2.195-1.17-2.996-1.612-2.501-3.344l12.259-50.856c-.569-.105-.776-.261-1.139-.21-1.396-.728-2.738-1.094-4.602-1.202 0 0-10.771 45.661-11.76 47.832-1.145 2.376-4.063 1.309-6.003.657-1.756-.678-2.067-1.557-1.494-2.745l10.979-45.506c-6.783 1.69-11.711 6.077-14.302 8.657l1.5 10.689c.178 1.268.588 2.874-.837 3.258-11.366 3.257-17.335.216-19.041-.098-1.319-.185-1.577-.704-1.6-2.179l-2.19-66.932c.006-1.293.805-.853 1.555-.772.754.08 18.839-1.351 18.839-1.351.905-.127 2.431.214 2.711 2.206.279 1.993-.85 40.019-.85 40.019 5.235-3.506 22.906-14.482 43.635-6.308zM944.521 29.945l28.492 48.288c1.035 2.583 1.578 5.125-1.832 7.09 0 0-7.126 4.659-12.289 6.732-3.904 1.927-3.803.687-5.582-1.958-.931-.825-22.647-34.322-22.647-34.322-22.535 12.88-60.524 46.714-60.524 46.714l-13.187-18.813s72.443-51.977 76.942-55.104c4.051-3.662 7.603-4.369 10.627 1.373zm-2.169 166.124c9.12 4.496 4.659 7.126 4.659 7.126s-3.511 3.208-6.195 5.484c-2.414 2.048-6.199-.509-9.51-2.78-29.656-18.917-37.059-41.25-38.849-49.888l-.991-.082-8.994 51.699c-7.687-.632-10.204 2.657-17.646 2.045-3.969-.326-9.159-1.002-8.833-4.971l.838-101.31 43.092 1.295-.04.496c12.896-1.938 24.947.302 35.972 8.95 14.065 11.144 9.978 33.531-6.508 39.666-7.727 2.862-16.263 3.408-23.246 3.333.994 3.078 2.88 7.478 6.481 12.27l14.605-7.54c3.922-2.174 6.733-2.942 8.97.239 3.019 2.743 5.583 4.953 5.583 4.953s2.338 1.941-1.809 6.843c-2.539 3.537-8.009 9.33-11.52 12.537 3.972 3.323 8.935 6.727 13.941 9.635zm-47.807-59.363l-1.007 6.16c7.689.632 20.896.968 28.023-.693 2.811-.768 4.69-2.361 6.051-3.748l-33.067-1.719zm3.388-19.948l-1.087 7.152 31.745 2.609c-.846-1.817-2.383-4.44-4.531-5.616-5.706-3.465-18.151-3.988-26.127-4.145zm33.488-12.48l-14.883-1.223c-4.467-.367-5.749-2.968-5.586-4.953l1.672-20.338 14.881 1.223c5.457.448 5.421 3.94 5.177 6.918l-1.261 18.373zm118.802 64.452c28.526 2.345 37.78 17.339 36.19 36.684-2.568 31.252-41.858 32.267-41.858 32.267l.347-4.216-38.728.313-.285 3.472-20.833-1.712s4.874-38.055 6.566-58.64l5.24-63.744-15.873 1.692 4.127-44.108c10.126-1.664 14.096 1.659 15.422 3.764l5.475.201.613-43.897s30.895-5.2 38.095 22.61c3.385 13.512 4.384 19.586 4.922 22.128l16.7.374c1.857-4.344 3.134-7.734 3.134-7.734l20.833 1.712 2.989 66.918-33.499.492s-5.901-7.227-4.576-23.35c.51-6.2 2.715-14.759 5.639-23.009l-58.533-4.812 1.549 17.607 16.372 1.346-.204 2.479 13.887 1.142.204-2.479c9.194-2.491 15.568 5.024 15.14 10.232.455.538-.532 42.906-.532 42.906l-19.962-.143.02-.248-14.238.078-1.923 17.322 37.194-2.936.386-4.711zm-3.65 44.397l2.202-26.788-37.569 4.403-2.085 19.306 37.452 3.079zm-27.961-91.193l-2.209 20.794c3.742.057 9.486.03 14.3-.823l1.882-19.821-13.973-.15z"/></g><g stroke="#fff" stroke-width="14" stroke-linejoin="round" fill="none"><path d="M135.802 168.708c-3.626 8.143-20.878 43.279-55.878 39.123-40.17-4.942-64.85-22.948-66.485-24.189-1.182-1.348-.788-2.112.094-4.046 0 0 6.872-14.661 7.898-17.203 1.12-2.949 3.149-2.472 4.798-.372 2.819 2.59 11.485 7.625 19.604 9.534 8.728 2.05 25.129 3.333 36.658-3.807 11.327-7.19 14.321-13.554 15.657-19.236 1.287-5.479 2.073-10.648-1.653-16.665-5.542-9.225-10.662-10.214-16.68-10.13-5.92-.319-18.464 6.584-20.469 7.826-1.755 1.086-4.489.873-5.825-.725l-10.652-12.998s16.851-17.028 37.417-17.977c12.224-.982 34.954 4.36 49.678 22.811s9.883 37.225 5.838 48.054zm4.106-81.269c-1.168 3.152-3.983 7.842-5.822 10.196-1.884 2.555-6.052 1.146-9.095.432 0 0-23.544-5.532-29.834-7.011-6.088-1.43 2.768-8.128-.647-13.644-3.214-5.465-18.758-6.761-28.389-4.956l10.826-46.069c.524-2.232 1.108-3.809 3.842-3.595 2.638.62 29.617 2.463 47.289 18.394 9.838 9.164 21.075 24.226 11.83 46.253zM185.758 141.522c.261 7.459.739 14.715 1.925 21.062 4.012 21.979 11.424 29.55 12.228 30.847.932 1.259 1.109 2.323.528 3.192l-2.254 4.16c-.542.998-2.504 1.442-6.85-2.853-4.93-5.795-13.396-21.148-14.512-47.477-.057-2.077-.115-4.153-.045-6.267-10.415 2.532-15.988 2.093-15.988 2.093l2.01-17.207c4.091-.794 9.17-2.024 14.392-3.713 1.033-15.8 3.004-27.97 3.264-29.443.621-2.139 1.302-2.201 2.328-2.506l5.771-1.713s1.316 1.144.549 5.142c-1.346 4.866-2.516 14.564-3.048 25.471 5.53-2.061 10.69-4.43 14.671-7.007 9.732-6.239 14.843-13.479 21.534-9.742 6.821 3.699 2.055 12.093-3.484 16.947-5.062 4.575-18.715 14.07-33.019 19.014zm69.827 39.152c6.846-.915 8.375-2.346 8.87-.679.496 1.669-1.28 4.149-1.326 6.815-.048 2.666-6.77 4.94-10.31 5.711-3.668.809-15.668 2.697-20.86-10.557-3.981-10.124 3.082-15.012 2.054-18.476-.609-2.053-4.015 1.051-5.574-.439-1.726-1.582-3.411-8.199-3.274-11.032.174-2.704 1.03-1.701 2.251-2.762 1.387-.97 8.222-6.627 17.285-2.897 7.937 3.228 4.298 12.125 2.763 14.952-1.571 2.7-4.964 10.548-4.051 13.625.951 3.207 5.362 6.784 12.172 5.739zM318.703 131.843v-11.456l33.852-1.54c1.881 0 1.881 1.197 1.881 3.592 0 2.393-1.367 27.867-20.004 53.513-14.361 20.004-28.209 19.49-40.52 19.49-12.31 0-15.216-16.242-3.933-19.49-6.496-6.668-10.429-32.143-3.077-52.487 7.522-21.03 28.381-46.676 56.933-46.676 28.553 0 61.379 23.424 63.088 64.114 1.539 40.862-30.945 57.446-57.787 63.259l-9.403-28.722c14.361-5.3 34.535 28.209 34.535-40.692 0-18.464-15.387-32.142-38.298-32.142-17.267 0-26.671 11.968-32.826 30.433-5.3 17.096 9.917 33.681 4.617 45.478 10.771-5.471 21.371-36.587 22.567-49.068l-11.625 2.394zM488.96 18.058l-6.553 59.942 15.418.162-1.573 14.395-15.535.912-9.651 88.301-32.071-8.941 1.808-16.542 10.76-2.955 6.388-58.438-29.067 1.389 2.16-19.766 28.809.974 6.764-61.875 22.343 2.442zm10.394 167.456c14.648-2.748 23.079 1.653 23.722 13.681.619 12.244-22.604 11.879-22.604 11.879l-1.118-25.56zm108.762-26.374l-13.107-1.433-1.864 11.1 18.835 2.711-.939 8.594-19.738-.419-6.776 42.089c-31.01-4.693-32.549-24.428-32.549-24.428l20.188-1.707 3.098-16.403-58.02-.254-2.782-20.307 63.025 8.194 2.271-10.839-66.602-7.28.966-60.553 45.976 5.025 1.878-17.188-42.248-3.314.538-32.77 43.612 18.682 5.308-48.556s31.866 14.789 31.279 20.159c-.611 5.587-11.103 10.092-11.103 10.092l-3.054 27.931 28.471 12.025-29.504-2.572-1.973 18.047 33.301 3.64c2.792.305 6.519 2.017 5.979 6.958-.542 4.944-14.466 52.776-14.466 52.776zm-50.745-40.987l1.033-9.452-12.675-1.386-1.033 9.452 12.675 1.386zm-1.926 17.618l1.08-9.882-12.675-1.386-1.08 9.882 12.675 1.386zm33.51-14.166l1.033-9.452-8.378-.916-1.033 9.452 8.378.916zm-1.926 17.618l1.08-9.882-8.378-.916-1.08 9.882 8.378.916zm15.963-82.394l29.737-13.489-4.32 39.531-25.417-26.042zM692.086 90.269c1.11 1.322 1.494 2.746.947 4.115l-27.2 66.808c-1.273 2.765-2.908 4.288-4.407 4.129-.956-.236-1.806-2.334-1.566-4.584l-.697-64.187c-.021-1.474-.225-2.923.191-3.905 3.535-6.408 6.415-9.583 15.572-10.129 8.98-.521 15.87 6.455 17.16 7.753zm46.73 49.965c2.771-1.312 3.696.036 2.062 2.852-1.096 2.739-6.404 16.231-17.626 24.456 2.087 13.562 3.562 24.069 3.664 24.793.381 2.718.763 5.435-1.23 5.715s-4.349.61-6.521-.378c-1.961-.833-.999-3.184-1.126-4.09l-3.284-22.075c-7.225 2.491-20.558 6.21-33.778-3.757-1.65-1.246.082-2.043 1.481-2.609l29.422-12.811-4.2-28.599c-7.688 1.819-15.324 3.999-16.592 4.177-3.261.458-4.08-2.752-3.405-4.509l2.634-8.867c.236-.957 1.224-1.834 2.128-1.961 0 0 6.264-1.433 13.02-3.306l-6.185-40.14c10.322-1.449 17.663 2.139 18.579 8.662.89 6.339-3.081 10.959-6.11 11.755l2.466 17.573c4.299-.974 7.688-1.82 8.051-1.871 1.631-.229 2.483.576 2.661 1.844 0 0 1.84 9.163 1.916 9.707.076.544.435 1.786-1.868 2.479 0 0-3.753.896-8.543 2.308 1.17 8.333 2.673 17.728 3.97 26.966l18.414-8.314zm66.443-45.16c20.909 8.148 26.31 21.614 28.219 44.437 2.019 20.96-12.999 57.427-30.377 54.693-12.261-1.789-10.762-10.866-10.762-10.866l-15.277-4.875c-1.139-.21-1.215-.753-.849-2.098.185-1.318 1.493-7.783 1.493-7.783s.186-1.32 1.736-.798c1.524.341 14.061 5.416 18.141 8.168 0 0 8.429-18.916 10.221-32.468 1.291-9.233-1.558-18.992-7.36-26.122-3.763 15.306-11.494 45.762-11.914 46.745-.363 1.345-1.503 1.136-2.663.743l-5.767-1.591c-2.195-1.17-2.996-1.612-2.501-3.344l12.259-50.856c-.569-.105-.776-.261-1.139-.21-1.396-.728-2.738-1.094-4.602-1.202 0 0-10.771 45.661-11.76 47.832-1.145 2.376-4.063 1.309-6.003.657-1.756-.678-2.067-1.557-1.494-2.745l10.979-45.506c-6.783 1.69-11.711 6.077-14.302 8.657l1.5 10.689c.178 1.268.588 2.874-.837 3.258-11.366 3.257-17.335.216-19.041-.098-1.319-.185-1.577-.704-1.6-2.179l-2.19-66.932c.006-1.293.805-.853 1.555-.772.754.08 18.839-1.351 18.839-1.351.905-.127 2.431.214 2.711 2.206.279 1.993-.85 40.019-.85 40.019 5.235-3.506 22.906-14.482 43.635-6.308zM944.521 29.945l28.492 48.288c1.035 2.583 1.578 5.125-1.832 7.09 0 0-7.126 4.659-12.289 6.732-3.904 1.927-3.803.687-5.582-1.958-.931-.825-22.647-34.322-22.647-34.322-22.535 12.88-60.524 46.714-60.524 46.714l-13.187-18.813s72.443-51.977 76.942-55.104c4.051-3.662 7.603-4.369 10.627 1.373zm-2.169 166.124c9.12 4.496 4.659 7.126 4.659 7.126s-3.511 3.208-6.195 5.484c-2.414 2.048-6.199-.509-9.51-2.78-29.656-18.917-37.059-41.25-38.849-49.888l-.991-.082-8.994 51.699c-7.687-.632-10.204 2.657-17.646 2.045-3.969-.326-9.159-1.002-8.833-4.971l.838-101.31 43.092 1.295-.04.496c12.896-1.938 24.947.302 35.972 8.95 14.065 11.144 9.978 33.531-6.508 39.666-7.727 2.862-16.263 3.408-23.246 3.333.994 3.078 2.88 7.478 6.481 12.27l14.605-7.54c3.922-2.174 6.733-2.942 8.97.239 3.019 2.743 5.583 4.953 5.583 4.953s2.338 1.941-1.809 6.843c-2.539 3.537-8.009 9.33-11.52 12.537 3.972 3.323 8.935 6.727 13.941 9.635zm-47.807-59.363l-1.007 6.16c7.689.632 20.896.968 28.023-.693 2.811-.768 4.69-2.361 6.051-3.748l-33.067-1.719zm3.388-19.948l-1.087 7.152 31.745 2.609c-.846-1.817-2.383-4.44-4.531-5.616-5.706-3.465-18.151-3.988-26.127-4.145zm33.488-12.48l-14.883-1.223c-4.467-.367-5.749-2.968-5.586-4.953l1.672-20.338 14.881 1.223c5.457.448 5.421 3.94 5.177 6.918l-1.261 18.373zm118.802 64.452c28.526 2.345 37.78 17.339 36.19 36.684-2.568 31.252-41.858 32.267-41.858 32.267l.347-4.216-38.728.313-.285 3.472-20.833-1.712s4.874-38.055 6.566-58.64l5.24-63.744-15.873 1.692 4.127-44.108c10.126-1.664 14.096 1.659 15.422 3.764l5.475.201.613-43.897s30.895-5.2 38.095 22.61c3.385 13.512 4.384 19.586 4.922 22.128l16.7.374c1.857-4.344 3.134-7.734 3.134-7.734l20.833 1.712 2.989 66.918-33.499.492s-5.901-7.227-4.576-23.35c.51-6.2 2.715-14.759 5.639-23.009l-58.533-4.812 1.549 17.607 16.372 1.346-.204 2.479 13.887 1.142.204-2.479c9.194-2.491 15.568 5.024 15.14 10.232.455.538-.532 42.906-.532 42.906l-19.962-.143.02-.248-14.238.078-1.923 17.322 37.194-2.936.386-4.711zm-3.65 44.397l2.202-26.788-37.569 4.403-2.085 19.306 37.452 3.079zm-27.961-91.193l-2.209 20.794c3.742.057 9.486.03 14.3-.823l1.882-19.821-13.973-.15z"/></g><g fill="#E95513"><path d="M135.802 168.708c-3.626 8.143-20.878 43.279-55.878 39.123-40.17-4.942-64.85-22.948-66.485-24.189-1.182-1.348-.788-2.112.094-4.046 0 0 6.872-14.661 7.898-17.203 1.12-2.949 3.149-2.472 4.798-.372 2.819 2.59 11.485 7.625 19.604 9.534 8.728 2.05 25.129 3.333 36.658-3.807 11.327-7.19 14.321-13.554 15.657-19.236 1.287-5.479 2.073-10.648-1.653-16.665-5.542-9.225-10.662-10.214-16.68-10.13-5.92-.319-18.464 6.584-20.469 7.826-1.755 1.086-4.489.873-5.825-.725l-10.652-12.998s16.851-17.028 37.417-17.977c12.224-.982 34.954 4.36 49.678 22.811s9.883 37.225 5.838 48.054zm4.106-81.269c-1.168 3.152-3.983 7.842-5.822 10.196-1.884 2.555-6.052 1.146-9.095.432 0 0-23.544-5.532-29.834-7.011-6.088-1.43 2.768-8.128-.647-13.644-3.214-5.465-18.758-6.761-28.389-4.956l10.826-46.069c.524-2.232 1.108-3.809 3.842-3.595 2.638.62 29.617 2.463 47.289 18.394 9.838 9.164 21.075 24.226 11.83 46.253zM185.758 141.522c.261 7.459.739 14.715 1.925 21.062 4.012 21.979 11.424 29.55 12.228 30.847.932 1.259 1.109 2.323.528 3.192l-2.254 4.16c-.542.998-2.504 1.442-6.85-2.853-4.93-5.795-13.396-21.148-14.512-47.477-.057-2.077-.115-4.153-.045-6.267-10.415 2.532-15.988 2.093-15.988 2.093l2.01-17.207c4.091-.794 9.17-2.024 14.392-3.713 1.033-15.8 3.004-27.97 3.264-29.443.621-2.139 1.302-2.201 2.328-2.506l5.771-1.713s1.316 1.144.549 5.142c-1.346 4.866-2.516 14.564-3.048 25.471 5.53-2.061 10.69-4.43 14.671-7.007 9.732-6.239 14.843-13.479 21.534-9.742 6.821 3.699 2.055 12.093-3.484 16.947-5.062 4.575-18.715 14.07-33.019 19.014zm69.827 39.152c6.846-.915 8.375-2.346 8.87-.679.496 1.669-1.28 4.149-1.326 6.815-.048 2.666-6.77 4.94-10.31 5.711-3.668.809-15.668 2.697-20.86-10.557-3.981-10.124 3.082-15.012 2.054-18.476-.609-2.053-4.015 1.051-5.574-.439-1.726-1.582-3.411-8.199-3.274-11.032.174-2.704 1.03-1.701 2.251-2.762 1.387-.97 8.222-6.627 17.285-2.897 7.937 3.228 4.298 12.125 2.763 14.952-1.571 2.7-4.964 10.548-4.051 13.625.951 3.207 5.362 6.784 12.172 5.739zM318.703 131.843v-11.456l33.852-1.54c1.881 0 1.881 1.197 1.881 3.592 0 2.393-1.367 27.867-20.004 53.513-14.361 20.004-28.209 19.49-40.52 19.49-12.31 0-15.216-16.242-3.933-19.49-6.496-6.668-10.429-32.143-3.077-52.487 7.522-21.03 28.381-46.676 56.933-46.676 28.553 0 61.379 23.424 63.088 64.114 1.539 40.862-30.945 57.446-57.787 63.259l-9.403-28.722c14.361-5.3 34.535 28.209 34.535-40.692 0-18.464-15.387-32.142-38.298-32.142-17.267 0-26.671 11.968-32.826 30.433-5.3 17.096 9.917 33.681 4.617 45.478 10.771-5.471 21.371-36.587 22.567-49.068l-11.625 2.394zM488.96 18.058l-6.553 59.942 15.418.162-1.573 14.395-15.535.912-9.651 88.301-32.071-8.941 1.808-16.542 10.76-2.955 6.388-58.438-29.067 1.389 2.16-19.766 28.809.974 6.764-61.875 22.343 2.442zm10.394 167.456c14.648-2.748 23.079 1.653 23.722 13.681.619 12.244-22.604 11.879-22.604 11.879l-1.118-25.56zm108.762-26.374l-13.107-1.433-1.864 11.1 18.835 2.711-.939 8.594-19.738-.419-6.776 42.089c-31.01-4.693-32.549-24.428-32.549-24.428l20.188-1.707 3.098-16.403-58.02-.254-2.782-20.307 63.025 8.194 2.271-10.839-66.602-7.28.966-60.553 45.976 5.025 1.878-17.188-42.248-3.314.538-32.77 43.612 18.682 5.308-48.556s31.866 14.789 31.279 20.159c-.611 5.587-11.103 10.092-11.103 10.092l-3.054 27.931 28.471 12.025-29.504-2.572-1.973 18.047 33.301 3.64c2.792.305 6.519 2.017 5.979 6.958-.542 4.944-14.466 52.776-14.466 52.776zm-50.745-40.987l1.033-9.452-12.675-1.386-1.033 9.452 12.675 1.386zm-1.926 17.618l1.08-9.882-12.675-1.386-1.08 9.882 12.675 1.386zm33.51-14.166l1.033-9.452-8.378-.916-1.033 9.452 8.378.916zm-1.926 17.618l1.08-9.882-8.378-.916-1.08 9.882 8.378.916zm15.963-82.394l29.737-13.489-4.32 39.531-25.417-26.042zM692.086 90.269c1.11 1.322 1.494 2.746.947 4.115l-27.2 66.808c-1.273 2.765-2.908 4.288-4.407 4.129-.956-.236-1.806-2.334-1.566-4.584l-.697-64.187c-.021-1.474-.225-2.923.191-3.905 3.535-6.408 6.415-9.583 15.572-10.129 8.98-.521 15.87 6.455 17.16 7.753zm46.73 49.965c2.771-1.312 3.696.036 2.062 2.852-1.096 2.739-6.404 16.231-17.626 24.456 2.087 13.562 3.562 24.069 3.664 24.793.381 2.718.763 5.435-1.23 5.715s-4.349.61-6.521-.378c-1.961-.833-.999-3.184-1.126-4.09l-3.284-22.075c-7.225 2.491-20.558 6.21-33.778-3.757-1.65-1.246.082-2.043 1.481-2.609l29.422-12.811-4.2-28.599c-7.688 1.819-15.324 3.999-16.592 4.177-3.261.458-4.08-2.752-3.405-4.509l2.634-8.867c.236-.957 1.224-1.834 2.128-1.961 0 0 6.264-1.433 13.02-3.306l-6.185-40.14c10.322-1.449 17.663 2.139 18.579 8.662.89 6.339-3.081 10.959-6.11 11.755l2.466 17.573c4.299-.974 7.688-1.82 8.051-1.871 1.631-.229 2.483.576 2.661 1.844 0 0 1.84 9.163 1.916 9.707.076.544.435 1.786-1.868 2.479 0 0-3.753.896-8.543 2.308 1.17 8.333 2.673 17.728 3.97 26.966l18.414-8.314zm66.443-45.16c20.909 8.148 26.31 21.614 28.219 44.437 2.019 20.96-12.999 57.427-30.377 54.693-12.261-1.789-10.762-10.866-10.762-10.866l-15.277-4.875c-1.139-.21-1.215-.753-.849-2.098.185-1.318 1.493-7.783 1.493-7.783s.186-1.32 1.736-.798c1.524.341 14.061 5.416 18.141 8.168 0 0 8.429-18.916 10.221-32.468 1.291-9.233-1.558-18.992-7.36-26.122-3.763 15.306-11.494 45.762-11.914 46.745-.363 1.345-1.503 1.136-2.663.743l-5.767-1.591c-2.195-1.17-2.996-1.612-2.501-3.344l12.259-50.856c-.569-.105-.776-.261-1.139-.21-1.396-.728-2.738-1.094-4.602-1.202 0 0-10.771 45.661-11.76 47.832-1.145 2.376-4.063 1.309-6.003.657-1.756-.678-2.067-1.557-1.494-2.745l10.979-45.506c-6.783 1.69-11.711 6.077-14.302 8.657l1.5 10.689c.178 1.268.588 2.874-.837 3.258-11.366 3.257-17.335.216-19.041-.098-1.319-.185-1.577-.704-1.6-2.179l-2.19-66.932c.006-1.293.805-.853 1.555-.772.754.08 18.839-1.351 18.839-1.351.905-.127 2.431.214 2.711 2.206.279 1.993-.85 40.019-.85 40.019 5.235-3.506 22.906-14.482 43.635-6.308zM944.521 29.945l28.492 48.288c1.035 2.583 1.578 5.125-1.832 7.09 0 0-7.126 4.659-12.289 6.732-3.904 1.927-3.803.687-5.582-1.958-.931-.825-22.647-34.322-22.647-34.322-22.535 12.88-60.524 46.714-60.524 46.714l-13.187-18.813s72.443-51.977 76.942-55.104c4.051-3.662 7.603-4.369 10.627 1.373zm-2.169 166.124c9.12 4.496 4.659 7.126 4.659 7.126s-3.511 3.208-6.195 5.484c-2.414 2.048-6.199-.509-9.51-2.78-29.656-18.917-37.059-41.25-38.849-49.888l-.991-.082-8.994 51.699c-7.687-.632-10.204 2.657-17.646 2.045-3.969-.326-9.159-1.002-8.833-4.971l.838-101.31 43.092 1.295-.04.496c12.896-1.938 24.947.302 35.972 8.95 14.065 11.144 9.978 33.531-6.508 39.666-7.727 2.862-16.263 3.408-23.246 3.333.994 3.078 2.88 7.478 6.481 12.27l14.605-7.54c3.922-2.174 6.733-2.942 8.97.239 3.019 2.743 5.583 4.953 5.583 4.953s2.338 1.941-1.809 6.843c-2.539 3.537-8.009 9.33-11.52 12.537 3.972 3.323 8.935 6.727 13.941 9.635zm-47.807-59.363l-1.007 6.16c7.689.632 20.896.968 28.023-.693 2.811-.768 4.69-2.361 6.051-3.748l-33.067-1.719zm3.388-19.948l-1.087 7.152 31.745 2.609c-.846-1.817-2.383-4.44-4.531-5.616-5.706-3.465-18.151-3.988-26.127-4.145zm33.488-12.48l-14.883-1.223c-4.467-.367-5.749-2.968-5.586-4.953l1.672-20.338 14.881 1.223c5.457.448 5.421 3.94 5.177 6.918l-1.261 18.373zm118.802 64.452c28.526 2.345 37.78 17.339 36.19 36.684-2.568 31.252-41.858 32.267-41.858 32.267l.347-4.216-38.728.313-.285 3.472-20.833-1.712s4.874-38.055 6.566-58.64l5.24-63.744-15.873 1.692 4.127-44.108c10.126-1.664 14.096 1.659 15.422 3.764l5.475.201.613-43.897s30.895-5.2 38.095 22.61c3.385 13.512 4.384 19.586 4.922 22.128l16.7.374c1.857-4.344 3.134-7.734 3.134-7.734l20.833 1.712 2.989 66.918-33.499.492s-5.901-7.227-4.576-23.35c.51-6.2 2.715-14.759 5.639-23.009l-58.533-4.812 1.549 17.607 16.372 1.346-.204 2.479 13.887 1.142.204-2.479c9.194-2.491 15.568 5.024 15.14 10.232.455.538-.532 42.906-.532 42.906l-19.962-.143.02-.248-14.238.078-1.923 17.322 37.194-2.936.386-4.711zm-3.65 44.397l2.202-26.788-37.569 4.403-2.085 19.306 37.452 3.079zm-27.961-91.193l-2.209 20.794c3.742.057 9.486.03 14.3-.823l1.882-19.821-13.973-.15z"/></g><path stroke="#fff" stroke-width="10" stroke-linejoin="round" d="M206.446 280.728c17.398.258 31.446 12.244 31.446 27.064 0 14.822-14.435 26.936-32.092 26.936-17.783 0-32.218-12.114-32.218-26.936 0-.387 0-.772.127-1.159h16.756c-.902 7.217 5.413 13.532 13.917 14.176 8.508.515 16.111-4.768 17.013-11.985.773-7.089-5.413-13.531-13.918-14.176h-1.934c-16.881 0-30.543-12.115-30.543-27.065 0-14.951 13.662-26.937 30.543-26.937 15.337 0 28.097 10.054 30.158 23.329h-15.851c-1.547-5.025-6.444-8.893-12.76-9.408-8.119-.646-15.337 4.768-16.108 11.985-.773 7.088 5.153 13.532 13.273 14.047.772.129 1.546.129 2.191.129z" fill="none"/><path fill="#003655" d="M206.446 280.728c17.398.258 31.446 12.244 31.446 27.064 0 14.822-14.435 26.936-32.092 26.936-17.783 0-32.218-12.114-32.218-26.936 0-.387 0-.772.127-1.159h16.756c-.902 7.217 5.413 13.532 13.917 14.176 8.508.515 16.111-4.768 17.013-11.985.773-7.089-5.413-13.531-13.918-14.176h-1.934c-16.881 0-30.543-12.115-30.543-27.065 0-14.951 13.662-26.937 30.543-26.937 15.337 0 28.097 10.054 30.158 23.329h-15.851c-1.547-5.025-6.444-8.893-12.76-9.408-8.119-.646-15.337 4.768-16.108 11.985-.773 7.088 5.153 13.532 13.273 14.047.772.129 1.546.129 2.191.129z"/><path stroke="#fff" stroke-width="10" stroke-linejoin="round" d="M269.727 273.511c-15.982 0-28.869 13.79-28.869 30.673 0 17.013 12.887 30.544 28.869 30.544 15.85 0 28.738-13.532 28.738-30.544 0-16.883-12.889-30.673-28.738-30.673zm13.917 32.091c-.772 8.119-7.475 14.305-15.207 13.532-7.731-.772-13.404-7.86-12.5-16.108.772-8.249 7.474-14.306 15.206-13.662 7.734.901 13.403 7.99 12.501 16.238z" fill="none"/><path fill="#003655" d="M269.727 273.511c-15.982 0-28.869 13.79-28.869 30.673 0 17.013 12.887 30.544 28.869 30.544 15.85 0 28.738-13.532 28.738-30.544 0-16.883-12.889-30.673-28.738-30.673zm13.917 32.091c-.772 8.119-7.475 14.305-15.207 13.532-7.731-.772-13.404-7.86-12.5-16.108.772-8.249 7.474-14.306 15.206-13.662 7.734.901 13.403 7.99 12.501 16.238z"/><path stroke="#fff" stroke-width="12" stroke-linejoin="round" d="M429.664 266.293h-21.007c-3.737-2.835-8.378-4.51-13.405-4.51-12.5 0-22.553 10.181-22.553 22.811 0 8.505 4.64 15.852 11.6 19.719-6.316 3.351-10.57 9.021-10.57 15.464 0 3.608 1.418 6.96 3.61 9.667-1.804 3.35-2.707 7.217-2.707 11.212 0 12.887 10.44 23.326 23.456 23.326 12.888 0 23.456-10.439 23.456-23.326 0-13.017-10.568-23.586-23.456-23.586-6.314 0-11.985 2.45-16.109 6.445-.516-1.161-.772-2.449-.772-3.738 0-6.313 5.67-11.469 13.401-12.629h.645c12.502 0 22.554-10.054 22.554-22.554 0-4.511-1.159-8.635-3.479-12.115h15.337v-6.186zm-44.953 73.752c.769-7.793 7.156-13.669 14.564-12.775 7.28.64 12.52 7.41 11.753 15.202-.639 7.792-7.026 13.667-14.436 12.902-7.153-.641-12.517-7.538-11.881-15.329zm23.031-54.628c-.609 7.425-6.695 13.023-13.756 12.294-6.816-.61-11.929-7.183-11.321-14.607.732-7.427 6.818-13.025 13.878-12.174 6.937.61 11.93 7.061 11.199 14.487z" fill="none"/><path fill="#003655" d="M429.664 266.293h-21.007c-3.737-2.835-8.378-4.51-13.405-4.51-12.5 0-22.553 10.181-22.553 22.811 0 8.505 4.64 15.852 11.6 19.719-6.316 3.351-10.57 9.021-10.57 15.464 0 3.608 1.418 6.96 3.61 9.667-1.804 3.35-2.707 7.217-2.707 11.212 0 12.887 10.44 23.326 23.456 23.326 12.888 0 23.456-10.439 23.456-23.326 0-13.017-10.568-23.586-23.456-23.586-6.314 0-11.985 2.45-16.109 6.445-.516-1.161-.772-2.449-.772-3.738 0-6.313 5.67-11.469 13.401-12.629h.645c12.502 0 22.554-10.054 22.554-22.554 0-4.511-1.159-8.635-3.479-12.115h15.337v-6.186zm-44.953 73.752c.769-7.793 7.156-13.669 14.564-12.775 7.28.64 12.52 7.41 11.753 15.202-.639 7.792-7.026 13.667-14.436 12.902-7.153-.641-12.517-7.538-11.881-15.329zm23.031-54.628c-.609 7.425-6.695 13.023-13.756 12.294-6.816-.61-11.929-7.183-11.321-14.607.732-7.427 6.818-13.025 13.878-12.174 6.937.61 11.93 7.061 11.199 14.487z"/><path stroke="#fff" stroke-width="12" stroke-linejoin="round" d="M303.62 275.959h19.591v58.253h-19.591v-58.253zm19.591 5.672h43.045v52.582h-16.625l-26.42-52.582z" fill="none"/><path fill="#003655" d="M303.62 275.959h19.591v58.253h-19.591v-58.253zm19.591 5.672h43.045v52.582h-16.625l-26.42-52.582z"/><path stroke="#fff" stroke-width="12" stroke-linejoin="round" d="M591.275 243.741v90.472h-28.482v-42.014l-17.786 42.014h-20.878l-19.202-40.209v40.209h-23.713v-90.472h28.48l25.391 65.212 27.708-65.212h28.482z" fill="none"/><path fill="#003655" d="M591.275 243.741v90.472h-28.482v-42.014l-17.786 42.014h-20.878l-19.202-40.209v40.209h-23.713v-90.472h28.48l25.391 65.212 27.708-65.212h28.482z"/><path stroke="#fff" stroke-width="12" stroke-linejoin="round" d="M658.81 273.768v60.315h-15.469v-3.867c-4.509 2.192-9.536 3.222-14.819 3.222-16.11 0-29.127-10.825-30.027-24.486h-.13v-28.869h-1.934v-2.062l17.655-4.253v33.897c0 6.315 5.673 11.856 13.146 12.5 7.991.517 15.079-4.768 15.981-11.728 0-.516.127-.772.127-1.16v-27.194h-2.446v-2.062l17.916-4.253z" fill="none"/><path fill="#003655" d="M658.81 273.768v60.315h-15.469v-3.867c-4.509 2.192-9.536 3.222-14.819 3.222-16.11 0-29.127-10.825-30.027-24.486h-.13v-28.869h-1.934v-2.062l17.655-4.253v33.897c0 6.315 5.673 11.856 13.146 12.5 7.991.517 15.079-4.768 15.981-11.728 0-.516.127-.772.127-1.16v-27.194h-2.446v-2.062l17.916-4.253z"/><path stroke="#fff" stroke-width="12" stroke-linejoin="round" d="M684.845 296.838c11.984.129 21.647 8.506 21.647 18.687 0 10.311-9.925 18.688-22.168 18.688-12.241 0-22.167-8.376-22.167-18.688v-.772h11.6c-.645 4.896 3.737 9.279 9.668 9.794 5.927.387 11.082-3.35 11.727-8.247.644-5.026-3.74-9.408-9.663-9.796h-.644v-.128l-.646.128c-11.602 0-21.138-8.376-21.138-18.687 0-10.44 9.536-18.689 21.138-18.689 10.698 0 19.459 6.961 20.877 16.111h-10.954c-1.16-3.479-4.511-6.185-8.893-6.443-5.542-.516-10.566 3.221-11.084 8.118-.516 5.026 3.479 9.408 9.148 9.795.515.128 1.031.128 1.552 0v.129z" fill="none"/><path fill="#003655" d="M684.845 296.838c11.984.129 21.647 8.506 21.647 18.687 0 10.311-9.925 18.688-22.168 18.688-12.241 0-22.167-8.376-22.167-18.688v-.772h11.6c-.645 4.896 3.737 9.279 9.668 9.794 5.927.387 11.082-3.35 11.727-8.247.644-5.026-3.74-9.408-9.663-9.796h-.644v-.128l-.646.128c-11.602 0-21.138-8.376-21.138-18.687 0-10.44 9.536-18.689 21.138-18.689 10.698 0 19.459 6.961 20.877 16.111h-10.954c-1.16-3.479-4.511-6.185-8.893-6.443-5.542-.516-10.566 3.221-11.084 8.118-.516 5.026 3.479 9.408 9.148 9.795.515.128 1.031.128 1.552 0v.129z"/><path stroke="#fff" stroke-width="12" stroke-linejoin="round" d="M833.438 273.768v60.315h-15.466v-3.867c-4.509 2.192-9.536 3.222-14.82 3.222-16.11 0-29.125-10.825-30.032-24.486h-.125v-28.869h-1.934v-2.062l17.656-4.253v33.897c0 6.315 5.669 11.856 13.146 12.5 7.991.517 15.078-4.768 15.98-11.728 0-.516.128-.772.128-1.16v-27.194h-2.448v-2.062l17.915-4.253z" fill="none"/><path fill="#003655" d="M833.438 273.768v60.315h-15.466v-3.867c-4.509 2.192-9.536 3.222-14.82 3.222-16.11 0-29.125-10.825-30.032-24.486h-.125v-28.869h-1.934v-2.062l17.656-4.253v33.897c0 6.315 5.669 11.856 13.146 12.5 7.991.517 15.078-4.768 15.98-11.728 0-.516.128-.772.128-1.16v-27.194h-2.448v-2.062l17.915-4.253z"/><path stroke="#fff" stroke-width="12" stroke-linejoin="round" d="M857.667 275.959v5.671h31.705v38.792h-9.538l-22.167-38.663v52.452h-19.587v-58.253h19.587zm31.705 5.672h43.045v52.582h-16.625l-26.42-52.582z" fill="none"/><path fill="#003655" d="M857.667 275.959v5.671h31.705v38.792h-9.538l-22.167-38.663v52.452h-19.587v-58.253h19.587zm31.705 5.672h43.045v52.582h-16.625l-26.42-52.582z"/><path stroke="#fff" stroke-width="12" stroke-linejoin="round" d="M754.801 319.229c-3.999 4.443-9.842 7.251-16.346 7.251v-21.909h28.739c0-15.852-12.886-28.74-28.739-28.74-15.596 0-28.094 12.889-28.094 28.74 0 15.594 12.498 28.095 28.094 28.095 10.33 0 19.389-5.324 24.381-13.438h-8.035zm-35.784-20.456c0-9.31 8.847-16.857 19.761-16.857s19.763 7.547 19.763 16.857h-39.524z" fill="none"/><path fill="#003655" d="M754.801 319.229c-3.999 4.443-9.842 7.251-16.346 7.251v-21.909h28.739c0-15.852-12.886-28.74-28.739-28.74-15.596 0-28.094 12.889-28.094 28.74 0 15.594 12.498 28.095 28.094 28.095 10.33 0 19.389-5.324 24.381-13.438h-8.035zm-35.784-20.456c0-9.31 8.847-16.857 19.761-16.857s19.763 7.547 19.763 16.857h-39.524z"/></g></svg>